<?xml version="1.0" encoding="utf-8"?>
<!-- Generator: Adobe Illustrator 16.0.0, SVG Export Plug-In . SVG Version: 6.00 Build 0)  -->
<!DOCTYPE svg PUBLIC "-//W3C//DTD SVG 1.1//EN" "http://www.w3.org/Graphics/SVG/1.1/DTD/svg11.dtd">
<svg version="1.1" xmlns="http://www.w3.org/2000/svg" xmlns:xlink="http://www.w3.org/1999/xlink" x="0px" y="0px" width="474px"
	 height="474px" viewBox="0 0 474 474" enable-background="new 0 0 474 474" xml:space="preserve">
<g id="레이어_1">
	<g>
		<path fill-rule="evenodd" clip-rule="evenodd" fill="#010101" d="M348.092,357.029c-20.777,18.854-44.946,31.345-72.21,37.589
			c-9.368,2.145-19.066,2.858-28.614,4.229c-4.883-0.24-9.768-0.51-14.654-0.65c-0.344-0.009-0.716,0.929-1.075,1.428
			c-6.756-0.73-13.534-1.292-20.263-2.22c-27.342-3.77-52.089-14.011-74.407-30.191c-2.843-2.061-5.601-4.236-8.396-6.359
			c-0.409-0.401-0.813-0.805-1.222-1.207c-3.341-2.863-6.683-5.726-10.024-8.59c-0.213-0.228-0.427-0.456-0.642-0.684
			c-0.535-0.797-0.961-1.697-1.619-2.376c-23.287-24.116-37.647-52.752-43.258-85.758c-0.898-5.293-1.057-10.711-1.56-16.071
			c-0.195-0.542-0.392-1.086-0.587-1.63c0.011-4.184,0.023-8.366,0.034-12.549c-0.012-0.475-0.025-0.952-0.038-1.43
			c0.987-17.375,3.875-34.372,10.008-50.734c7.527-20.08,18.66-37.925,33.188-53.673c1.981,0.141,3.396-0.354,3.102-2.767
			c2.203-2.174,4.404-4.348,6.605-6.521c1.96,0.264,2.145-0.965,2.045-2.433c9.21-6.557,18.039-13.75,27.708-19.538
			c19.823-11.868,41.478-18.729,64.504-21.094c2.841-0.291,5.705-0.398,8.537-0.757c1.097-0.141,2.137-0.745,3.201-1.137
			c0.146,0.001,0.289,0.011,0.434,0.031l0.278,0.065l0.283-0.042c0.756,0.237,1.508,0.663,2.267,0.678
			c3.404,0.067,6.813,0.016,10.22,0.007c0.304-0.025,0.609-0.052,0.915-0.078c1.766,0.188,3.525,0.439,5.297,0.555
			c35.065,2.259,66.276,14.445,93.745,36.32c1.082,0.862,2.367,1.469,3.558,2.196c0.221,0.208,0.441,0.414,0.664,0.622
			c0.229,0.392,0.461,0.786,0.691,1.178c2.851,2.722,5.698,5.445,8.549,8.167c0.43,0.412,0.858,0.824,1.288,1.234
			c20.953,21.519,35.294,46.748,41.993,76.072c1.876,8.208,2.486,16.701,3.824,25.039c0.191,1.186,1.213,2.239,1.851,3.354
			c-0.002,0.224-0.004,0.448-0.004,0.672c-0.499,0.607-1.415,1.204-1.428,1.822c-0.083,3.832,0.036,7.667,0.087,11.501
			c0.223,0.377,0.443,0.755,0.663,1.131c-0.401,1.63-1.052,3.246-1.162,4.894c-2.499,37.167-16.66,69.345-41.378,97.025
			c-0.282,0.314-0.687,0.519-1.032,0.771c-0.965,0.385-2.148,0.537-2.859,1.196c-2.718,2.521-5.344,5.149-7.868,7.865
			C348.667,354.898,348.491,356.067,348.092,357.029z M236.262,394.648c8.198-0.835,16.457-1.279,24.582-2.571
			c39.871-6.338,73.73-24.167,99.561-55.319c32.222-38.861,44.269-83.571,33.765-133.282
			C376.809,121.32,295.303,66.312,211.73,79.77c-39.981,6.439-73.991,24.277-99.754,55.636
			c-33.615,40.914-45.38,87.724-31.914,139.388C98.544,345.714,162.52,394.083,236.262,394.648z"/>
		<path fill-rule="evenodd" clip-rule="evenodd" fill="#0A0A0A" d="M404.308,227.976c0-0.224,0.002-0.448,0.004-0.672
			c6.166,0.983,12.311,2.127,18.503,2.904c6.198,0.777,12.381,1.471,18.479-1.25c2.01-0.896,4.717-0.605,7.043-0.329
			c3.217,0.385,5.121,2.678,5.436,5.765c0.308,3.036-1.917,5.129-4.402,5.91c-2.353,0.741-5.51,1.144-7.574,0.154
			c-5.756-2.76-11.709-2.051-17.492-1.572c-6.941,0.573-13.785,2.312-20.673,3.546c-0.22-0.376-0.44-0.754-0.663-1.131
			c2.024-0.416,4.099-0.674,6.044-1.325c0.802-0.27,1.769-1.312,1.897-2.124c1.08-6.873,0.421-7.834-6.015-9.58
			C404.686,228.215,404.501,228.076,404.308,227.976z"/>
		<path fill-rule="evenodd" clip-rule="evenodd" fill="#090909" d="M69.557,230.559c0.013,0.478,0.025,0.955,0.038,1.43
			c-1.187,0.15-2.485,0.051-3.535,0.515c-1.126,0.497-2.695,1.375-2.904,2.34c-1.48,6.828-0.417,8.293,6.405,9.694
			c0.195,0.544,0.392,1.088,0.587,1.63c-5.538-1.182-11.051-2.494-16.619-3.497c-3.12-0.562-6.345-0.952-9.494-0.799
			c-3.649,0.177-7.258,1.111-10.901,1.572c-2.354,0.298-4.789,0.701-7.104,0.401c-3.409-0.443-5.781-3.286-5.829-6.188
			c-0.038-2.322,2.751-5.629,5.673-6.105c1.999-0.325,4.39-0.526,6.13,0.264c7.547,3.432,15.302,2.214,22.997,1.401
			C59.892,232.702,64.708,231.472,69.557,230.559z"/>
		<path fill-rule="evenodd" clip-rule="evenodd" fill="#080808" d="M363.961,351.626c4.457,5.83,8.755,11.792,13.455,17.418
			c1.598,1.91,4.092,3.2,6.384,4.37c3.878,1.977,7.292,4.281,7.5,9.077c0.202,4.725-3.956,7.8-8.18,5.679
			c-2.552-1.281-4.574-3.85-6.467-6.145c-1.693-2.055-2.492-4.938-4.377-6.73c-4.35-4.141-9.114-7.851-13.724-11.716
			c-1.336-1.119-2.723-2.175-4.083-3.259c0.074-0.226,0.15-0.454,0.224-0.682c2.419-0.092,8.09-4.354,8.487-6.482
			c0.079-0.434-0.358-0.965-0.557-1.449C363.07,351.68,363.517,351.652,363.961,351.626z"/>
		<path fill-rule="evenodd" clip-rule="evenodd" fill="#080909" d="M109.964,120.919c-2.815-3.876-5.568-7.8-8.465-11.613
			c-3.729-4.908-7.641-9.479-13.808-11.736c-3.311-1.213-5.895-3.94-6.211-7.871c-0.375-4.677,3.703-8.042,7.917-6.074
			c2.586,1.207,4.729,3.663,6.651,5.919c2.228,2.615,3.551,6.121,6.056,8.354c5.219,4.648,10.959,8.713,16.485,13.02
			c-0.417,0.242-0.806,0.591-1.254,0.712C113.837,112.566,109.968,117.411,109.964,120.919z"/>
		<path fill-rule="evenodd" clip-rule="evenodd" fill="#080808" d="M350.465,108.271c6.038-4.873,12.177-9.627,18.051-14.691
			c1.643-1.418,2.767-3.63,3.661-5.682c1.415-3.246,3.27-5.957,6.539-7.5c2.564-1.209,5.291-0.929,6.929,1.133
			c1.16,1.462,1.976,4.278,1.343,5.845c-1.032,2.559-2.928,5.718-5.244,6.631c-6.241,2.461-9.896,7.525-13.971,12.137
			c-2.799,3.168-4.819,7.027-7.188,10.576c-0.537,0.081-1.072,0.161-1.607,0.242c0.445-3.409-4.292-7.95-8.278-7.936
			C350.62,108.774,350.543,108.521,350.465,108.271z"/>
		<path fill-rule="evenodd" clip-rule="evenodd" fill="#080909" d="M122.008,364.95c-5.917,4.688-11.931,9.268-17.693,14.14
			c-1.578,1.336-2.29,3.644-3.598,5.354c-1.889,2.469-3.73,5.055-6.018,7.113c-2.275,2.046-5.008,1.277-7.276-0.419
			c-2.376-1.777-2.839-4.685-1.5-6.809c1.657-2.627,4.297-4.686,6.707-6.765c1.363-1.174,3.276-1.7,4.665-2.852
			c6.24-5.178,10.945-11.664,15.278-18.439C115.719,359.167,118.863,362.057,122.008,364.95z"/>
		<path fill-rule="evenodd" clip-rule="evenodd" fill="#080808" d="M229.049,69.167c0.677-4.332,1.477-8.651,1.99-13.003
			c0.423-3.598,0.737-7.24,0.656-10.853c-0.053-2.34-1.036-4.645-1.363-6.998c-0.383-2.756-0.863-5.577-0.645-8.319
			c0.232-2.935,2.438-4.623,5.31-5.049c2.917-0.432,5.181,1.202,5.937,3.681c0.781,2.568,1.48,5.937,0.454,8.129
			c-2.662,5.691-1.846,11.488-1.506,17.187c0.333,5.539,1.804,11.01,2.776,16.513c-0.316,0.042-0.631,0.083-0.947,0.125
			c-0.353-3.217-2.105-4.2-5.312-4.05C233.559,66.662,230.909,66.603,229.049,69.167z"/>
		<path fill-rule="evenodd" clip-rule="evenodd" fill="#080808" d="M233.646,404.625c0.284,0.65,0.568,1.301,0.852,1.953
			c0.146,0.129,0.293,0.259,0.439,0.389c2.664,0.017,5.329,0.034,7.995,0.053c0.247-0.121,0.497-0.242,0.744-0.361
			c0.528-0.835,1.056-1.67,1.583-2.507c0.161,0.025,0.324,0.049,0.484,0.074c-0.222,1.43-0.498,2.854-0.655,4.288
			c-0.813,7.4-1.697,14.794-2.301,22.213c-0.121,1.509,0.791,3.134,1.352,4.659c1.383,3.757,1.946,7.562-0.553,10.984
			c-2.83,3.878-7.909,3.667-9.858-0.676c-1.104-2.458-1.61-5.995-0.69-8.396c3.025-7.903,2.01-15.73,0.867-23.651
			c-0.434-3.013-1.03-6.004-1.553-9.006C232.785,404.636,233.217,404.63,233.646,404.625z"/>
		<path fill-rule="evenodd" clip-rule="evenodd" fill="#F1F1F1" d="M122.008,364.95c-3.145-2.894-6.289-5.783-9.436-8.677
			c0.898-1.319,1.794-2.64,2.693-3.959c0.652-0.42,1.307-0.839,1.961-1.258c3.341,2.864,6.683,5.727,10.024,8.59
			c-0.618,0.693-1.238,1.386-1.857,2.078C124.265,362.8,123.138,363.875,122.008,364.95z"/>
		<path fill-rule="evenodd" clip-rule="evenodd" fill="#F2F3F2" d="M109.964,120.919c0.004-3.508,3.873-8.353,7.372-9.289
			c0.448-0.121,0.836-0.47,1.254-0.712c0.87,0.631,1.739,1.261,2.608,1.892c-0.32,0.015-0.642,0.013-0.959,0.051
			c-0.082,0.011-0.145,0.15-0.215,0.229c0.316,1.578,4.397,0.723,2.437,3.773c-2.202,2.172-4.403,4.346-6.605,6.521
			c-1.287,0.266-2.574,0.531-3.86,0.797C111.318,123.095,110.642,122.007,109.964,120.919z"/>
		<path fill-rule="evenodd" clip-rule="evenodd" fill="#F8F8F8" d="M229.049,69.167c1.86-2.564,4.51-2.505,7.351-2.637
			c3.206-0.15,4.959,0.833,5.312,4.05c0.076,0.688,0.149,1.377,0.226,2.063c-3.406,0.009-6.815,0.06-10.22-0.007
			c-0.759-0.015-1.511-0.441-2.267-0.678c-0.146-0.755-0.293-1.509-0.438-2.265C228.999,69.516,229.012,69.341,229.049,69.167z"/>
		<path fill-rule="evenodd" clip-rule="evenodd" fill="#060606" d="M348.092,357.029c0.399-0.962,0.575-2.131,1.238-2.847
			c2.524-2.716,5.15-5.344,7.868-7.865c0.711-0.659,1.895-0.812,2.859-1.196c-0.081,0.219-0.066,0.429,0.042,0.633
			c-0.295,0.325-0.588,0.65-0.882,0.976c-3.024,3.203-6.048,6.407-9.071,9.609c-0.014,0.48-0.028,0.962-0.043,1.442
			C349.433,357.53,348.763,357.28,348.092,357.029z"/>
		<path fill-rule="evenodd" clip-rule="evenodd" fill="#060606" d="M231.538,399.624c0.359-0.499,0.731-1.437,1.075-1.428
			c4.887,0.141,9.771,0.41,14.654,0.65c-0.133,0.597-0.267,1.195-0.4,1.793c-0.427,0.002-0.855,0.006-1.281,0.009
			c-0.537-0.436-1.068-1.234-1.614-1.247c-3.661-0.075-7.326,0.015-10.991,0.051c-0.15,0.179-0.303,0.358-0.452,0.535
			c-0.072,0.444-0.145,0.888-0.217,1.33l0.007-0.004C232.059,400.75,231.798,400.187,231.538,399.624z"/>
		<path fill-rule="evenodd" clip-rule="evenodd" fill="#F5F5F5" d="M359.218,346.729c0.294-0.325,0.587-0.65,0.882-0.976
			c1.286,1.957,2.575,3.914,3.861,5.872c-0.444,0.026-0.891,0.054-1.337,0.081C361.487,350.048,360.353,348.389,359.218,346.729z"/>
		<path fill-rule="evenodd" clip-rule="evenodd" fill="#F2F2F2" d="M358.977,116.961c0.535-0.082,1.07-0.161,1.607-0.242
			c-1.287,1.596-2.572,3.19-3.858,4.786c-0.239-0.045-0.476-0.09-0.713-0.136C357.002,119.898,357.988,118.431,358.977,116.961z"/>
		<path fill-rule="evenodd" clip-rule="evenodd" fill="#F5F5F5" d="M350.104,357.781c0.015-0.48,0.029-0.962,0.043-1.442
			c1.517,1.101,3.033,2.199,4.547,3.3c-0.073,0.228-0.149,0.456-0.224,0.682C353.013,359.475,351.559,358.627,350.104,357.781z"/>
		<path fill-rule="evenodd" clip-rule="evenodd" fill="#060606" d="M122.46,116.864c1.96-3.051-2.12-2.196-2.437-3.773
			c0.071-0.08,0.134-0.219,0.215-0.229c0.318-0.038,0.64-0.036,0.959-0.051c1.103,0.541,2.205,1.081,3.307,1.621
			C124.605,115.898,124.42,117.127,122.46,116.864z"/>
		<path fill-rule="evenodd" clip-rule="evenodd" fill="#F2F2F2" d="M350.465,108.271c0.078,0.251,0.155,0.504,0.233,0.755
			c-1.088,0.854-2.175,1.711-3.263,2.568c0.002-0.246,0.004-0.492,0.006-0.737C348.45,109.995,349.458,109.134,350.465,108.271z"/>
		<path fill-rule="evenodd" clip-rule="evenodd" fill="#060606" d="M111.994,124.181c1.287-0.266,2.573-0.531,3.86-0.797
			c0.294,2.413-1.121,2.908-3.102,2.767C112.5,125.493,112.247,124.837,111.994,124.181z"/>
		<path fill-rule="evenodd" clip-rule="evenodd" fill="#F7F8F7" d="M245.586,400.648c0.426-0.003,0.854-0.007,1.281-0.009
			c-0.265,0.833-0.522,1.668-0.826,2.486c-0.008,0.019-0.792-0.182-0.786-0.245C245.318,402.133,245.463,401.392,245.586,400.648z"
			/>
		<path fill-rule="evenodd" clip-rule="evenodd" fill="#F7F8F7" d="M233.646,404.625c-0.43,0.005-0.861,0.011-1.294,0.016
			c-0.013-1.109-0.023-2.217-0.034-3.327l-0.007,0.004C232.758,402.42,233.202,403.522,233.646,404.625z"/>
		<path fill-rule="evenodd" clip-rule="evenodd" fill="#060606" d="M125.393,361.725c0.62-0.692,1.24-1.385,1.857-2.078
			c0.409,0.402,0.813,0.806,1.222,1.207C127.446,361.143,126.419,361.434,125.393,361.725z"/>
		<path fill-rule="evenodd" clip-rule="evenodd" fill="#060606" d="M347.441,110.856c-0.002,0.246-0.004,0.492-0.006,0.737
			c-0.228,0.206-0.453,0.414-0.681,0.622c-0.217-0.029-0.431-0.014-0.64,0.043c-0.223-0.208-0.443-0.414-0.664-0.622
			C346.115,111.377,346.778,111.117,347.441,110.856z"/>
		<path fill-rule="evenodd" clip-rule="evenodd" fill="#060606" d="M117.226,351.057c-0.654,0.419-1.309,0.838-1.961,1.258
			c0.441-0.647,0.88-1.294,1.319-1.941C116.799,350.601,117.013,350.829,117.226,351.057z"/>
		<path fill-rule="evenodd" clip-rule="evenodd" fill="#050505" d="M241.937,72.644c-0.076-0.687-0.149-1.375-0.226-2.063
			c0.316-0.042,0.631-0.083,0.947-0.125c0.064,0.703,0.128,1.406,0.193,2.111C242.546,72.592,242.24,72.619,241.937,72.644z"/>
		<path fill-rule="evenodd" clip-rule="evenodd" fill="#363636" d="M229.012,69.695c0.146,0.755,0.292,1.509,0.438,2.265
			l-0.283,0.042l-0.278-0.065c-0.145-0.221-0.291-0.441-0.439-0.664C228.637,70.747,228.823,70.221,229.012,69.695z"/>
		<path fill-rule="evenodd" clip-rule="evenodd" fill="#060606" d="M356.013,121.369c0.237,0.045,0.474,0.09,0.713,0.136
			c-0.027,0.444-0.055,0.889-0.082,1.333c-0.43-0.41-0.858-0.822-1.288-1.234C355.574,121.526,355.793,121.447,356.013,121.369z"/>
		<path fill-rule="evenodd" clip-rule="evenodd" fill="#050505" d="M228.449,71.272c0.148,0.222,0.295,0.443,0.439,0.664
			c-0.145-0.02-0.287-0.029-0.434-0.031C228.337,71.695,228.335,71.486,228.449,71.272z"/>
		<path fill-rule="evenodd" clip-rule="evenodd" fill="#F7F8F7" d="M232.528,399.987c0.149-0.177,0.302-0.356,0.452-0.535
			C232.83,399.631,232.678,399.811,232.528,399.987z"/>
		<path fill-rule="evenodd" clip-rule="evenodd" fill="#F7F8F7" d="M234.938,406.967c-0.146-0.13-0.293-0.26-0.439-0.389
			C234.702,406.644,234.849,406.773,234.938,406.967z"/>
		<path fill-rule="evenodd" clip-rule="evenodd" fill="#F7F8F7" d="M243.677,406.658c-0.247,0.119-0.497,0.24-0.744,0.361
			C243.18,406.898,243.43,406.777,243.677,406.658z"/>
		<path fill-rule="evenodd" clip-rule="evenodd" fill="#FDFDFD" d="M236.262,394.648c-73.742-0.565-137.717-48.935-156.2-119.854
			c-13.466-51.665-1.701-98.474,31.914-139.388c25.764-31.359,59.773-49.196,99.754-55.636
			c83.572-13.458,165.078,41.55,182.438,123.706c10.504,49.711-1.543,94.421-33.765,133.282
			c-25.83,31.152-59.689,48.981-99.561,55.319C252.719,393.369,244.46,393.813,236.262,394.648z M238.01,192.334
			c-23.834-0.065-44.031,20.111-44.016,43.966c0.019,23.756,19.872,43.705,43.721,43.929c23.776,0.222,44.035-19.862,44.178-43.799
			C282.035,212.64,261.893,192.397,238.01,192.334z M360.37,229.691c2.732-18.839-20.167-70.999-31.979-74.851
			c-12.076,11.875-23.845,23.447-35.791,35.192c10.24,11.234,16.311,24.551,18.293,39.658
			C327.636,229.691,344.019,229.691,360.37,229.691z M115.685,229.451c0.851,0.254,1.057,0.369,1.263,0.369
			c16.191,0.023,32.384,0,48.576,0.094c2.284,0.013,2.259-1.402,2.656-2.92c1.392-5.301,2.32-10.827,4.507-15.792
			c2.896-6.573,6.812-12.698,9.907-18.32c-11.952-12.029-24.088-24.24-36.357-36.587
			C127.97,177.028,117.676,201.426,115.685,229.451z M156.628,327.302c21.926,18.698,46.774,28.907,75.409,30.601
			c0-16.667,0-32.809,0-48.393c-7.331-2.169-14.617-3.649-21.322-6.499c-6.703-2.85-12.824-7.071-18.488-10.287
			C180.568,304.05,168.751,315.528,156.628,327.302z M243.283,115.277c0,17.494,0,34.596,0,51.747
			c14.326,0.777,27.051,5.53,37.279,12.515c12.68-11.879,24.942-23.368,37.54-35.168
			C295.877,126.234,271.329,116.625,243.283,115.277z M146.068,316.698c12.219-11.818,24.195-23.402,36.291-35.105
			c-8.704-11.027-13.428-23.625-14.955-37.319c-17.382,0-34.381,0-51.714,0C117.922,272.362,128.187,296.615,146.068,316.698z
			 M228.697,115.476c-27.318,2.481-51.127,12.472-70.812,29.404c12.112,12.656,24.029,25.106,36.044,37.659
			c10.464-7.986,21.946-12.941,34.768-14.917C228.697,150.262,228.697,133.029,228.697,115.476z M329.431,317.23
			c15.181-12.104,33.257-55.011,30.958-73.023c-16.327,0-32.677,0-49.28,0c-1.543,14.476-6.744,27.446-15.206,37.784
			C307.33,294.002,318.402,305.641,329.431,317.23z M246.082,308.734c0,16.569,0,32.736,0,49.141
			c27.983-2.174,52.236-12.15,73.009-29.886c-11.552-11.632-22.946-23.104-34.458-34.695
			C273.383,302.065,260.442,307.189,246.082,308.734z"/>
		<path fill-rule="evenodd" clip-rule="evenodd" fill="#FAFBFA" d="M404.308,227.976c0.193,0.1,0.378,0.239,0.586,0.295
			c6.436,1.746,7.095,2.707,6.015,9.58c-0.129,0.812-1.096,1.854-1.897,2.124c-1.945,0.65-4.02,0.909-6.044,1.325
			c-0.051-3.835-0.17-7.67-0.087-11.501C402.893,229.18,403.809,228.583,404.308,227.976z"/>
		<path fill-rule="evenodd" clip-rule="evenodd" fill="#FEFEFE" d="M356.013,121.369c-0.22,0.078-0.438,0.157-0.657,0.235
			c-2.851-2.722-5.698-5.445-8.549-8.167c-0.018-0.408-0.034-0.815-0.052-1.222c0.228-0.208,0.453-0.416,0.681-0.622
			c1.088-0.856,2.175-1.713,3.263-2.568c3.986-0.015,8.724,4.527,8.278,7.936C357.988,118.431,357.002,119.898,356.013,121.369z"/>
		<path fill-rule="evenodd" clip-rule="evenodd" fill="#F7F8F7" d="M69.56,244.538c-6.822-1.4-7.885-2.866-6.405-9.694
			c0.209-0.965,1.778-1.843,2.904-2.34c1.05-0.464,2.348-0.365,3.535-0.515C69.583,236.172,69.571,240.354,69.56,244.538z"/>
		<path fill-rule="evenodd" clip-rule="evenodd" fill="#F2F2F2" d="M346.755,112.215c0.018,0.407,0.034,0.813,0.052,1.222
			c-0.23-0.392-0.462-0.786-0.691-1.178C346.324,112.201,346.538,112.187,346.755,112.215z"/>
		<path fill-rule="evenodd" clip-rule="evenodd" fill="#FEFEFE" d="M354.693,359.639c-1.514-1.101-3.03-2.199-4.547-3.3
			c3.023-3.202,6.047-6.406,9.071-9.609c1.135,1.659,2.27,3.318,3.406,4.978c0.198,0.484,0.636,1.016,0.557,1.449
			C362.783,355.285,357.112,359.547,354.693,359.639z"/>
		<path fill-rule="evenodd" clip-rule="evenodd" fill="#010101" d="M238.01,192.334c23.883,0.063,44.025,20.306,43.883,44.097
			c-0.143,23.937-20.401,44.021-44.178,43.799c-23.849-0.225-43.702-20.173-43.721-43.929
			C193.979,212.445,214.176,192.269,238.01,192.334z"/>
		<path fill-rule="evenodd" clip-rule="evenodd" fill="#A2C237" d="M360.37,229.691c-16.352,0-32.734,0-49.477,0
			c-1.982-15.107-8.053-28.424-18.293-39.658c11.946-11.745,23.715-23.317,35.791-35.192
			C340.203,158.692,363.103,210.853,360.37,229.691z"/>
		<path fill-rule="evenodd" clip-rule="evenodd" fill="#A2C237" d="M115.685,229.451c1.991-28.025,12.286-52.423,30.552-73.157
			c12.27,12.347,24.405,24.559,36.357,36.587c-3.096,5.623-7.012,11.747-9.907,18.32c-2.187,4.964-3.115,10.491-4.507,15.792
			c-0.397,1.518-0.372,2.933-2.656,2.92c-16.191-0.094-32.385-0.07-48.576-0.094C116.742,229.82,116.536,229.706,115.685,229.451z"
			/>
		<path fill-rule="evenodd" clip-rule="evenodd" fill="#A2C237" d="M156.628,327.302c12.123-11.773,23.94-23.252,35.599-34.578
			c5.664,3.216,11.785,7.438,18.488,10.287c6.705,2.85,13.991,4.33,21.322,6.499c0,15.584,0,31.726,0,48.393
			C203.402,356.209,178.554,346,156.628,327.302z"/>
		<path fill-rule="evenodd" clip-rule="evenodd" fill="#A2C237" d="M243.283,115.277c28.046,1.348,52.594,10.958,74.819,29.093
			c-12.598,11.801-24.86,23.29-37.54,35.168c-10.229-6.985-22.953-11.738-37.279-12.515
			C243.283,149.873,243.283,132.771,243.283,115.277z"/>
		<path fill-rule="evenodd" clip-rule="evenodd" fill="#A2C237" d="M146.068,316.698c-17.881-20.083-28.146-44.336-30.378-72.424
			c17.333,0,34.333,0,51.714,0c1.527,13.693,6.251,26.292,14.955,37.319C170.264,293.296,158.287,304.88,146.068,316.698z"/>
		<path fill-rule="evenodd" clip-rule="evenodd" fill="#A2C237" d="M228.697,115.476c0,17.554,0,34.786,0,52.146
			c-12.821,1.976-24.304,6.931-34.768,14.917c-12.015-12.553-23.932-25.003-36.044-37.659
			C177.57,127.947,201.379,117.957,228.697,115.476z"/>
		<path fill-rule="evenodd" clip-rule="evenodd" fill="#A2C237" d="M329.431,317.23c-11.028-11.59-22.101-23.229-33.528-35.239
			c8.462-10.338,13.663-23.308,15.206-37.784c16.604,0,32.953,0,49.28,0C362.688,262.22,344.611,305.126,329.431,317.23z"/>
		<path fill-rule="evenodd" clip-rule="evenodd" fill="#A2C237" d="M246.082,308.734c14.36-1.545,27.301-6.669,38.551-15.44
			c11.512,11.592,22.906,23.063,34.458,34.695c-20.772,17.735-45.025,27.712-73.009,29.886
			C246.082,341.471,246.082,325.304,246.082,308.734z"/>
	</g>
</g>
<g id="레이어_2">
</g>
<g id="레이어_3">
	<polygon fill-rule="evenodd" clip-rule="evenodd" fill="#595757" points="255.687,211.654 240.291,211.654 240.291,201.559 
		233.582,201.559 233.582,211.654 218.072,211.654 218.072,218.364 233.582,218.364 233.582,272.303 240.291,272.303 
		240.291,218.364 255.687,218.364 	"/>
	<g>
		<path fill="#FFFFFF" d="M206.404,241.474l0.324-0.142l0.344-0.061l0.243,0.041c0.027,0.014,0.047,0.061,0.061,0.142l-0.142,0.162
			l0.162-0.02l0.183-0.324l0.445,0.021l-0.122,0.202l0.143,0.365l0.182,0.162l0.264,0.142l0.243-0.142
			c0-0.054-0.027-0.102-0.081-0.142c-0.055-0.013,0.04-0.006,0.283,0.021l0.223-0.041l0.567-0.182l0.243,0.041l0.101-0.243
			l0.283,0.02l0.162-0.182l0.304,0.041l-0.02-0.142l0.202,0.061l0.04-0.162l0.224-0.121l0.263-0.021
			c-0.095,0.176-0.081,0.271,0.041,0.284c0.094,0.027,0.195,0,0.304-0.081h0.283c0.067,0.014,0.121,0.03,0.162,0.051
			c0.04,0.02,0.047,0.05,0.021,0.091c-0.081,0.095,0.02,0.081,0.304-0.041l0.202-0.101l0.021,0.203l0.243,0.121
			c-0.027,0.095-0.115,0.142-0.264,0.142l0.081,0.182l0.466-0.122c0.04,0.243,0.033,0.466-0.021,0.668l-0.647,0.405
			c-0.122,0-0.324-0.013-0.608-0.041c-0.04-0.067-0.135-0.101-0.283-0.101c-0.135,0-0.297,0.074-0.485,0.223l-0.426-0.162
			c-0.283,0.162-0.466,0.243-0.547,0.243c-0.054,0-0.108-0.007-0.162-0.021c-0.054-0.013-0.114-0.027-0.182-0.041
			c-0.055-0.013-0.108-0.023-0.162-0.03c-0.055-0.006-0.095-0.01-0.122-0.01c-0.081,0.04-0.216,0.115-0.404,0.223l-0.223-0.284
			c-0.271-0.041-0.439-0.061-0.507-0.061l-0.466,0.162c-0.081-0.013-0.188,0.027-0.323,0.122c-0.041-0.041-0.176,0-0.405,0.122
			l-0.77-0.081c-0.162,0.135-0.317,0.203-0.466,0.203c-0.162,0-0.364-0.061-0.607-0.182l-0.466,0.122h-0.405
			c-0.162-0.148-0.311-0.236-0.445-0.264c-0.135-0.027-0.271-0.041-0.405-0.041l-0.587,0.284c-0.202-0.162-0.385-0.243-0.547-0.243
			s-0.324,0.014-0.485,0.041c-0.312,0.027-0.561,0.048-0.75,0.061c-0.202,0.014-0.392,0.023-0.566,0.03
			c-0.176,0.007-0.291,0.01-0.345,0.01c-0.135,0-0.311-0.014-0.526-0.041c-0.271,0.067-0.466,0.101-0.587,0.101
			c-0.148,0-0.385-0.087-0.709-0.263l-0.668-0.02l-0.304,0.182c-0.338-0.013-0.614-0.021-0.83-0.021
			c-0.122,0-0.196-0.003-0.223-0.01c-0.027-0.007-0.034-0.023-0.021-0.051c0.013-0.013,0.04-0.037,0.081-0.071
			c0.04-0.034,0.061-0.078,0.061-0.132c0-0.081-0.027-0.216-0.081-0.405l0.121-0.243l0.203-0.041
			c0.121-0.013,0.229-0.135,0.324-0.364l0.323-0.081c0.122,0.054,0.189,0.095,0.203,0.122c0,0.041-0.055,0.088-0.162,0.142h0.466
			l0.101,0.182l0.365-0.203l0.404,0.021c-0.054,0.122-0.067,0.182-0.04,0.182c0.013,0.027,0.037,0.038,0.07,0.03
			c0.034-0.006,0.064-0.01,0.092-0.01c0.013,0,0.02,0.003,0.02,0.01c0,0.007-0.026,0.031-0.08,0.071
			c-0.055,0.054-0.062,0.078-0.021,0.071c0.04-0.007,0.094-0.017,0.162-0.031l0.304-0.121l-0.162-0.223l0.243-0.263l0.101-0.283
			c0,0.014,0.034,0.027,0.102,0.041c0.067,0.027,0.142,0.047,0.223,0.061c0.095,0.014,0.216,0.034,0.364,0.061l-0.323,0.122
			c-0.055,0.216-0.041,0.324,0.04,0.324c0.081,0.014,0.128-0.007,0.142-0.061l0.466,0.021l-0.183-0.101l0.284-0.122l0.324,0.02
			l0.223-0.02c0.054,0.108,0.073,0.175,0.061,0.202l0.547-0.041l0.304-0.101l0.243,0.101l0.223,0.061L202.698,242
			c-0.175,0.027-0.304,0.041-0.384,0.041c-0.041,0-0.071-0.003-0.092-0.01c-0.021-0.006-0.044-0.017-0.07-0.03
			c-0.014-0.013-0.034-0.023-0.062-0.03c-0.026-0.007-0.067-0.01-0.121-0.01l-0.183,0.142h0.203l0.547,0.263l0.668-0.365
			c0.013,0.068,0.054,0.102,0.121,0.102c0.027,0.027,0.03,0.017,0.011-0.031c-0.021-0.047-0.044-0.098-0.071-0.152
			c-0.04-0.054-0.095-0.135-0.162-0.243l0.668-0.041c-0.107,0.189-0.074,0.304,0.102,0.344l0.081-0.243l0.405,0.122
			c0.054-0.284,0.128-0.445,0.223-0.486c0.026-0.014,0.044-0.021,0.051-0.021s0.023,0.007,0.051,0.021
			c0.013,0.013,0.054,0.023,0.121,0.03s0.175-0.003,0.324-0.03c0.148-0.014,0.253,0.007,0.313,0.061
			c0.061,0.054,0.104,0.122,0.132,0.203c0.014,0.067,0.026,0.135,0.04,0.202c0.014,0.068,0.054,0.102,0.122,0.102
			c0.107,0.027,0.162,0.014,0.162-0.041l0.121,0.061l0.283-0.202l-0.364-0.081l-0.263,0.02v-0.182l0.526-0.182L206.404,241.474z
			 M209.928,233.111l-0.405,0.243l0.162,0.506l-0.223,0.223l0.264,0.223c0,0.054-0.041,0.182-0.122,0.385l0.162,0.567l0.021,0.405
			l-0.183,0.304v0.364l0.081,0.243l-0.243,0.223l0.021,0.385c-0.014,0.135-0.021,0.243-0.021,0.324v0.223
			c0-0.027,0.007,0,0.021,0.081s0.033,0.169,0.061,0.263c0.027,0.095,0.054,0.175,0.081,0.243v0.041
			c0.014,0.041,0.021,0.048,0.021,0.021c0-0.041-0.007-0.047-0.021-0.021c-0.014,0.041-0.02,0.081-0.02,0.122
			c-0.014,0.054-0.027,0.098-0.041,0.132s-0.027,0.03-0.04-0.01c-0.027-0.027-0.051-0.043-0.071-0.051
			c-0.021-0.006-0.044-0.017-0.071-0.03c-0.026-0.013-0.054-0.027-0.08-0.041c-0.027-0.013-0.055-0.041-0.081-0.081
			c-0.041-0.041-0.058-0.027-0.051,0.041c0.007,0.068,0.017,0.149,0.03,0.243c0.013,0.095,0.03,0.189,0.051,0.284
			c0.02,0.094,0.023,0.142,0.01,0.142l-0.243,0.283l-0.263,0.223l-0.162-0.243l-0.284,0.02l-0.04-0.162l-0.142,0.041l-0.324,0.182
			l-0.506-0.223l-0.162-0.607l0.263-0.871l-0.02-0.668c-0.149-0.297-0.243-0.493-0.284-0.587c-0.04-0.081,0.014-0.189,0.162-0.324
			l-0.081-0.486l-0.142-0.445l0.162-0.385l0.223-0.405c0.081-0.122,0.067-0.256-0.04-0.405c-0.041,0.068-0.068,0.014-0.081-0.162
			c-0.055-0.041-0.081-0.162-0.081-0.364c0-0.175-0.014-0.392-0.041-0.648c-0.202,0.014-0.364,0.02-0.485,0.02
			c-0.122,0-0.243,0-0.365,0c-0.121,0-0.202-0.006-0.242-0.02c-0.122-0.013-0.426,0.014-0.912,0.081
			c-0.311,0.014-0.526,0.041-0.647,0.081l-0.466-0.162l-0.688-0.102c-0.621-0.013-1.194-0.006-1.722,0.021
			c-0.148,0.014-0.26,0.03-0.334,0.051c-0.074,0.02-0.131,0.037-0.172,0.05c-0.04,0.027-0.067,0.038-0.081,0.03
			c-0.014-0.006-0.04-0.043-0.081-0.111c-0.054-0.041-0.139-0.067-0.253-0.081c-0.115-0.013-0.232-0.02-0.354-0.02
			c-0.121,0-0.271,0.007-0.445,0.02l-0.304,0.041l-0.486-0.162l0.223-0.77h0.507c0.094,0,0.202-0.003,0.324-0.01
			c0.121-0.007,0.223-0.043,0.304-0.111c0.04-0.027,0.073-0.043,0.101-0.051c0.027-0.006,0.054-0.003,0.081,0.01
			c0.041,0.014,0.074,0.024,0.102,0.03c0.026,0.007,0.061,0.01,0.102,0.01c0.054,0,0.148,0.014,0.283,0.041l0.445,0.081l0.425,0.041
			h0.426c0.094,0,0.125-0.003,0.091-0.01c-0.033-0.007-0.01-0.037,0.071-0.091c0.04-0.013,0.074-0.017,0.101-0.01
			c0.027,0.007,0.062,0.017,0.102,0.03c0.041,0,0.084,0.003,0.132,0.01c0.047,0.007,0.104-0.01,0.172-0.051
			c0.054-0.027,0.098-0.047,0.132-0.061c0.033-0.013,0.058-0.02,0.071-0.02h0.587c0.026,0,0.037,0,0.03,0s-0.018-0.007-0.03-0.02
			c-0.014,0-0.021-0.003-0.021-0.01s0.033-0.01,0.102-0.01c0.148,0,0.311,0.034,0.485,0.101c0.041,0.027,0.055,0.088,0.041,0.183
			l0.283-0.061l0.264,0.021l0.364-0.041c0.081,0.027,0.209,0,0.385-0.081c0.027,0.014,0.102,0,0.223-0.041
			c0.095-0.041,0.155-0.061,0.183-0.061l0.263-0.142h0.203l0.182,0.243l0.426-0.203l0.202,0.203l0.081,0.142
			c0.081-0.054,0.175-0.101,0.283-0.142s0.209-0.013,0.304,0.081l0.062,0.182l0.465-0.122c0.271,0.014,0.486,0.027,0.648,0.041
			l0.243,0.021c0.107,0.067,0.182,0.121,0.223,0.162c0.026,0.068,0.128,0.169,0.304,0.304l-0.202,0.183L209.928,233.111z
			 M207.396,238.477l-0.04,0.203l0.729,0.122l-0.061-0.446l-0.445,0.183L207.396,238.477z M207.519,236.27l0.04,0.466
			c0.014,0.094,0.095,0.108,0.243,0.041c0.148-0.054,0.209-0.196,0.182-0.425L207.519,236.27z M208.328,232.483l-0.041,0.203
			l0.507,0.061l0.021-0.243l-0.102-0.223l0.223-0.203h-0.526l-0.021,0.183l-0.364,0.02L208.328,232.483z M208.045,241.434
			l0.547,0.101l0.263-0.142h0.688l-0.425,0.304l-0.203-0.122l-0.587,0.324l-0.121-0.284L208.045,241.434z M208.49,232.909
			l-0.324,0.101l0.021,0.203l0.324,0.081l0.101-0.203L208.49,232.909z M208.349,238.437l-0.102,0.223
			c0.148,0.068,0.371,0.068,0.668,0L208.349,238.437z M208.936,234.225l-0.283,0.081l0.202,0.607l0.526-0.142l-0.263-0.405
			L208.936,234.225z M209.3,233.739l-0.324-0.284l-0.223-0.121l0.062,0.486l0.182,0.02L209.3,233.739z M209.624,232.747
			c-0.067-0.054-0.183-0.088-0.344-0.101l-0.183-0.223c-0.041,0.135-0.067,0.243-0.081,0.324s-0.018,0.155-0.01,0.223
			c0.006,0.068,0.036,0.101,0.091,0.101c0.081,0,0.256-0.013,0.526-0.04C209.678,232.909,209.678,232.814,209.624,232.747z"/>
		<path fill="#FFFFFF" d="M219.161,231.511c0.067,0.122,0.216,0.209,0.446,0.263h0.485l0.304-0.101
			c0.189,0.014,0.365,0.02,0.526,0.02c0.162,0,0.331-0.006,0.507-0.02l0.951,0.243c0.419-0.108,0.729-0.108,0.932,0
			c0.176,0.108,0.243,0.317,0.203,0.627v0.526l0.121,0.324c-0.095,0.149-0.142,0.291-0.142,0.425c0,0.122-0.055,0.243-0.162,0.364
			l0.081,0.446l0.081,0.202l-0.142,0.344c0.04,0.054,0.057,0.095,0.051,0.122c-0.008,0.027-0.031,0.054-0.071,0.081
			c-0.027,0.027-0.058,0.061-0.091,0.102c-0.034,0.04-0.051,0.101-0.051,0.182c0,0.122,0.061,0.196,0.182,0.223l-0.121,0.324
			l-0.567,0.021l-0.385,0.162c-0.473-0.013-0.763-0.021-0.87-0.021c-0.041,0-0.092-0.003-0.152-0.01s-0.111-0.017-0.151-0.031
			c-0.055-0.013-0.104-0.023-0.152-0.03c-0.047-0.006-0.077-0.003-0.091,0.01l-0.385,0.162l-0.628-0.081
			c-0.189-0.013-0.344-0.027-0.466-0.041c-0.121-0.013-0.236-0.017-0.344-0.01c-0.108,0.007-0.183,0.024-0.223,0.051
			c-0.108,0.041-0.243,0.061-0.405,0.061l0.081,0.587l-0.041,0.668l0.203,0.405l-0.021,0.466l-0.121,0.506l0.02,0.688l0.203,0.425
			l0.81-0.061c0.081,0.014,0.297-0.021,0.648-0.101c0.175-0.027,0.304-0.041,0.385-0.041s0.142,0,0.182,0
			c0.041,0.013,0.078,0.023,0.111,0.03c0.034,0.007,0.098,0.01,0.192,0.01c0.176,0,0.297,0.04,0.365,0.121l0.404-0.041l0.445-0.182
			c0.297,0.095,0.5,0.122,0.607,0.081l0.466-0.182c0.311,0.135,0.514,0.182,0.607,0.142c0.095-0.041,0.284-0.081,0.567-0.122
			l0.102,0.324c0.054,0.27,0.067,0.452,0.04,0.547c-0.027,0.108-0.162,0.175-0.404,0.202l-1.033,0.102l-0.668-0.142l-1.195,0.122
			h-0.485l-0.405,0.061c-0.257,0.027-0.445,0.04-0.567,0.04l-0.364,0.102l-0.709-0.061l-0.688,0.102h-0.344
			c-0.283-0.041-0.466-0.061-0.547-0.061h-0.445l-0.324-0.121l-0.081-0.203l0.061-0.324l-0.04-0.466l-0.142-0.364l-0.021-0.547
			l0.061-0.567l0.142-0.304l-0.242-0.284l-0.041-0.425l-0.081-0.587v-0.466l0.142-0.486l-0.121-0.365l0.081-0.283l0.404,0.061
			l0.507-0.122l0.324,0.182l0.404-0.142l0.669-0.061l0.729,0.202l0.486-0.142h0.607l0.506,0.081l0.466-0.223l-0.142-0.506
			l0.04-0.466l-0.02-0.567l0.061-0.526l-0.121-0.628l-0.993,0.081l-1.113-0.142c-0.271-0.013-0.607-0.021-1.013-0.021
			c-0.095,0-0.176,0.007-0.243,0.021c-0.067,0.014-0.128,0.02-0.182,0.02c-0.041,0.014-0.074,0.024-0.102,0.031
			s-0.047,0.01-0.061,0.01l-0.628-0.061l-0.486,0.061l-0.425-0.061l0.061-0.344l-0.081-0.405l0.122-0.162l0.425,0.142l0.426-0.081
			l0.607-0.081l0.607,0.021l0.547,0.02L219.161,231.511z M217.258,235.845l-0.485,0.101l-0.243,0.284l0.142,0.385l0.183-0.203
			l0.304-0.061L217.258,235.845z M216.55,239.388l0.08,0.324l0.264,0.061l0.061,0.304l0.304-0.304l-0.081-0.243l-0.061-0.203
			l0.041-0.385l-0.324,0.203L216.55,239.388z M216.711,231.977l-0.04,0.162l0.324,0.122l0.142,0.041l0.223-0.122l-0.061-0.122
			h-0.264l-0.202-0.162L216.711,231.977z M217.663,240.097l-0.202-0.365l-0.122,0.324L217.663,240.097z M221.773,235.116
			l0.345-0.304l-0.283-0.223L221.773,235.116z M222.969,234.144l-0.284,0.264l-0.161-0.081l0.121,0.344l0.304-0.243L222.969,234.144
			z M223.05,232.888l-0.143,0.263l-0.04,0.304l0.304-0.162l-0.04-0.122L223.05,232.888z M223.535,240.117l-0.425,0.264l0.182,0.182
			l0.284-0.122L223.535,240.117z M228.132,233.172l0.203,0.304c-0.055,0.014-0.129,0.189-0.223,0.526l-0.284-0.445L228.132,233.172z
			 M230.299,236.27l-0.121,0.79l0.121,0.628c0.026,0.135,0.067,0.236,0.121,0.304c0.014,0.027,0.007,0.084-0.02,0.172
			c-0.027,0.088-0.055,0.146-0.081,0.172l-0.062,0.304c-0.054,0.081-0.121,0.135-0.202,0.162c-0.067,0.041-0.108,0.175-0.121,0.405
			h0.243l0.121-0.061l0.162,0.142l-0.021,0.223c-0.108,0.122-0.183,0.183-0.223,0.183s-0.115,0.013-0.223,0.04l-0.021,0.385
			l0.142,0.081l0.122-0.223h0.283l0.061,0.263l-0.061,0.425l-0.183,0.101l-0.081,0.142v0.283h0.183l-0.223,0.466L230.38,242
			l0.021,0.304l-0.243,0.284l-0.243,0.061l-0.345,0.102l-0.061-0.243l-0.425-0.021l-0.081,0.102l-0.324,0.041l-0.223-0.041h-0.223
			c-0.041,0-0.041-0.067,0-0.203l0.202-0.142l-0.101-0.061l0.161-0.142c-0.054,0.014-0.091,0.014-0.111,0
			c-0.02-0.013-0.03-0.041-0.03-0.081c-0.014-0.027-0.023-0.054-0.03-0.081c-0.007-0.027-0.03-0.047-0.07-0.061
			c-0.041-0.081-0.048-0.162-0.021-0.243c-0.054-0.094-0.088-0.202-0.102-0.324l0.102-0.102l-0.061-0.142l-0.061-0.182l0.161-0.101
			l-0.081-0.162l-0.04-0.122l0.264,0.02l0.323-0.02l0.264-0.101l-0.345-0.344l-0.485,0.243l0.02-0.344l0.143-0.466l-0.143-0.223
			l0.143-0.142l0.223-0.668l-0.203-0.182l-0.142-0.425c0.148-0.189,0.203-0.324,0.162-0.405c-0.054-0.081-0.108-0.25-0.162-0.506
			l0.081-0.223l0.081-0.425l0.304,0.506l0.364-0.021c0.067,0,0.081-0.047,0.041-0.142c-0.027-0.027-0.064-0.034-0.111-0.02
			c-0.048,0.013-0.099,0.02-0.152,0.02c-0.054,0.014-0.098,0.007-0.132-0.02c-0.033-0.027-0.037-0.095-0.01-0.203
			c0.014-0.094,0.03-0.162,0.051-0.203s0.051-0.074,0.091-0.101c0.027-0.013,0.051-0.023,0.071-0.03s0.044-0.031,0.07-0.071
			c0.054-0.054,0.014-0.142-0.121-0.263c0.054-0.122,0.121-0.202,0.202-0.243c-0.014-0.054-0.027-0.102-0.04-0.142
			c-0.014-0.041-0.027-0.087-0.041-0.142l0.143-0.182l-0.143-0.182l-0.647,0.101l0.162-0.83l-0.142-0.324l0.323-0.506l0.183-0.202
			c0.04-0.122,0.067-0.209,0.081-0.264c0-0.027-0.004-0.054-0.01-0.081c-0.008-0.027-0.018-0.047-0.031-0.061
			c0-0.027,0-0.047,0-0.061c0-0.013,0.014-0.027,0.041-0.041c0.04-0.013,0.074-0.054,0.102-0.122
			c0.026-0.067,0.033-0.101,0.02-0.101c-0.162,0.027-0.27-0.014-0.323-0.122c0.107-0.256,0.094-0.351-0.041-0.284
			c-0.095,0.041-0.159,0.078-0.192,0.111c-0.034,0.034-0.058,0.064-0.07,0.091c-0.014,0.027-0.024,0.044-0.031,0.051
			s-0.017-0.003-0.03-0.031c-0.054,0-0.121-0.067-0.202-0.202l0.142-0.284l-0.04-0.203l-0.021-0.405l0.121-0.142
			c-0.027-0.094-0.061-0.148-0.101-0.162l0.304,0.02l0.162,0.142l0.223-0.142l0.364-0.02l0.183,0.203l0.101-0.142l0.142,0.142
			l0.264-0.061l0.223-0.061l0.162,0.081l0.061,0.243l-0.162,0.223l-0.021,0.223h0.102l0.061,0.223v0.243l0.143,0.142l-0.122,0.122
			l-0.142,0.304l-0.223,0.101l0.162,0.182l0.121,0.304l-0.121,0.243l-0.081,0.344l0.04,0.344c0.095,0.203,0.142,0.425,0.142,0.668
			c0,0.243-0.088,0.425-0.263,0.546L230.299,236.27z M228.618,232.382l0.102,0.446c-0.014,0.095-0.027,0.175-0.041,0.243
			l-0.243,0.021c-0.188-0.108-0.283-0.189-0.283-0.243c-0.027-0.067-0.027-0.195,0-0.385L228.618,232.382z M228.639,235.642
			c0.013,0.284,0,0.419-0.041,0.405c-0.054,0-0.135-0.007-0.243-0.021l-0.142-0.142l0.183-0.223L228.639,235.642z M228.314,235.156
			l0.445-0.182l-0.102,0.466l-0.364-0.021L228.314,235.156z M228.639,240.927l-0.062-0.182l-0.223,0.364l0.466-0.02L228.639,240.927
			z M228.537,233.82l0.061-0.324l0.304-0.223l0.061,0.425L228.537,233.82z M229.388,242.062l-0.203-0.324l-0.223,0.203l-0.101,0.182
			l0.385,0.122L229.388,242.062z"/>
		<path fill="#FFFFFF" d="M256.825,241.636c-0.055-0.014-0.048,0.094,0.02,0.324l0.224-0.041l0.242-0.162l0.405,0.02l-0.102-0.243
			l0.264-0.101l0.183-0.203l0.445,0.162l-0.021-0.142l0.202-0.021l0.041-0.162l0.223-0.122l0.263-0.021
			c-0.094,0.176-0.08,0.271,0.041,0.284c0.094,0.027,0.195,0,0.304-0.081c0.121,0.014,0.216,0.027,0.283,0.041
			c0.067,0.014,0.125,0.037,0.173,0.071c0.047,0.034,0.057,0.071,0.03,0.111c-0.081,0.095,0.026,0.074,0.323-0.061l0.203-0.102
			l0.02,0.203l0.243,0.122c-0.027,0.095-0.114,0.128-0.263,0.101l0.425,0.243c0.041,0.243,0.034,0.432-0.021,0.567l-0.607,0.243
			c-0.121,0-0.337-0.021-0.647-0.061c-0.055-0.067-0.155-0.101-0.304-0.101c-0.136,0-0.297,0.074-0.486,0.223l-0.405-0.101
			c-0.283,0.162-0.465,0.243-0.546,0.243c-0.055,0-0.108-0.006-0.162-0.02c-0.055-0.013-0.115-0.027-0.183-0.041
			c-0.054-0.027-0.108-0.043-0.162-0.051c-0.054-0.006-0.095-0.01-0.121-0.01c-0.081,0.041-0.21,0.101-0.385,0.182l-0.243-0.243
			c-0.271-0.041-0.438-0.061-0.506-0.061l-0.466,0.182c-0.081-0.013-0.189,0.007-0.324,0.061c-0.041-0.04-0.176,0-0.405,0.122
			l-0.77-0.081c-0.162,0.122-0.317,0.183-0.466,0.183c-0.162,0-0.364-0.061-0.607-0.183l-0.485,0.122h-0.405
			c-0.162-0.135-0.311-0.216-0.445-0.243c-0.136-0.027-0.271-0.041-0.405-0.041l-0.587,0.283c-0.203-0.148-0.385-0.223-0.547-0.223
			s-0.324,0.014-0.486,0.041c-0.311,0.027-0.561,0.047-0.749,0.061c-0.202,0.014-0.392,0.024-0.567,0.031
			c-0.175,0.007-0.29,0.01-0.344,0.01c-0.135,0-0.311-0.013-0.526-0.041c-0.271,0.068-0.466,0.102-0.588,0.102
			c-0.148,0-0.364-0.102-0.647-0.304l-0.77-0.021l-0.304,0.182c-0.378,0.014-0.675,0.021-0.891,0.021
			c-0.122,0-0.196-0.007-0.224-0.021c-0.026-0.013-0.033-0.033-0.02-0.061c0.013-0.027,0.04-0.061,0.081-0.101
			c0.04-0.041,0.061-0.088,0.061-0.142c0-0.081-0.027-0.175-0.081-0.283l0.121-0.243l0.122-0.122
			c0.121-0.013,0.229-0.135,0.324-0.364l0.404-0.081c0.122,0.054,0.189,0.095,0.203,0.122c0,0.041-0.055,0.088-0.162,0.142
			l0.526-0.061l0.182,0.182l0.385-0.263l0.405,0.02c-0.054,0.122-0.067,0.182-0.04,0.182c0.013,0.027,0.037,0.038,0.07,0.031
			c0.034-0.007,0.064-0.01,0.092-0.01c0.013,0,0.02,0.003,0.02,0.01s-0.027,0.03-0.081,0.071c-0.107,0.095-0.054,0.142,0.162,0.142
			l0.264,0.101l0.324-0.04l0.263-0.183c0.216-0.094,0.345-0.155,0.385-0.182c0.014-0.027,0.051-0.037,0.111-0.03
			s0.125,0.017,0.192,0.03c0.067,0.014,0.135,0.027,0.202,0.041c0.068,0.014,0.122,0.014,0.162,0l0.466-0.081l0.324-0.081
			l0.466,0.142l0.223,0.061l0.162,0.101c0.067,0.041,0.102-0.054,0.102-0.283l0.668-0.041c-0.055,0.283,0.007,0.445,0.183,0.486
			c0.215,0.027,0.323,0.027,0.323,0c-0.121,0-0.095-0.087,0.081-0.263c0.095-0.203,0.189-0.324,0.284-0.365
			c0.026-0.013,0.043-0.02,0.05-0.02s0.023,0.007,0.051,0.02c0.014,0.014,0.054,0.024,0.122,0.031
			c0.067,0.007,0.175-0.003,0.323-0.031c0.148-0.013,0.254,0.007,0.314,0.061c0.061,0.054,0.104,0.122,0.132,0.203
			c0.013,0.067,0.026,0.135,0.04,0.202c0.014,0.068,0.054,0.102,0.121,0.102c0.108,0.027,0.162,0.014,0.162-0.041l0.122,0.061
			l0.202-0.081l-0.061-0.223l-0.264,0.021v-0.183l0.304-0.162l0.203,0.142l0.323-0.142l0.345-0.061l0.243,0.041
			c0.026,0.014,0.047,0.061,0.061,0.142l0.202-0.182l0.446,0.021l-0.122,0.202l0.142,0.304l0.284,0.041l-0.122-0.223l0.081-0.344
			l0.304,0.263l0.203-0.263h0.688l-0.041,0.405L256.825,241.636z M252.593,233.759l0.526,0.405l0.405,0.101l0.304,0.223l0.142,0.243
			l0.324,0.061l0.162,0.243l0.283,0.182l0.283,0.284l0.405,0.061l0.243,0.142l0.202,0.202c0.148,0.095,0.257,0.122,0.324,0.081
			c0.04-0.054,0.188,0.027,0.445,0.243l0.283,0.182c0.108,0.176,0.284,0.257,0.526,0.243c0.203-0.027,0.358,0.054,0.466,0.243
			l0.304,0.142v0.304c-0.081,0.122-0.142,0.203-0.182,0.243c-0.027,0.04-0.041,0.067-0.041,0.081c0,0.014,0,0.027,0,0.041
			c0.014,0.027,0.018,0.051,0.011,0.071c-0.007,0.021-0.018,0.051-0.03,0.091c-0.041,0.108-0.129,0.149-0.264,0.122l-0.344-0.041
			l-0.365-0.182l-0.182-0.203l-0.385-0.02l-0.122-0.203l-0.243-0.101l-0.242,0.02c-0.108-0.027-0.257-0.101-0.446-0.223
			l-0.142-0.243l-0.425-0.203l-0.283-0.283l-0.243-0.142h-0.284l-0.161-0.162c-0.189-0.067-0.312-0.102-0.365-0.102
			c-0.081,0-0.223-0.087-0.425-0.263l-0.223-0.324l-0.445-0.122l-0.385-0.203l-0.284-0.263l-0.385,0.365l-0.404,0.567l-0.588,0.243
			l-0.323,0.587c-0.243,0.27-0.405,0.479-0.486,0.628c-0.067,0.081-0.257,0.175-0.567,0.283l-0.142,0.486l-0.405,0.263l-0.242,0.344
			l-0.264-0.263h-0.263l-0.264-0.243l-0.041-0.243l-0.384,0.102l-0.264-0.263l-0.364-0.142l0.101-0.304l0.203,0.041l0.101-0.223
			l0.081-0.223c0.176,0.027,0.229,0.034,0.162,0.02l0.284-0.061c-0.095-0.013-0.122-0.067-0.081-0.162
			c0.081-0.162,0.121-0.27,0.121-0.324l0.162,0.183l0.223-0.162l-0.061-0.162l0.04-0.263l0.223-0.162l0.041-0.101l0.101,0.142
			l0.183,0.102l0.162,0.02l0.183-0.263l0.202-0.142l0.121-0.385c0.135,0,0.216,0.014,0.243,0.041c0,0.054,0.027,0.108,0.081,0.162
			l0.183-0.121l0.02-0.183l-0.304-0.162l0.365-0.183c-0.014-0.013-0.027-0.061-0.041-0.142c-0.027-0.108-0.054-0.148-0.081-0.122
			c-0.04,0.041-0.104,0.084-0.192,0.132s-0.165,0.05-0.232,0.01c-0.081-0.054,0.021-0.169,0.304-0.344v-0.284l0.283,0.02
			c-0.027-0.041-0.04-0.094-0.04-0.162c0-0.054,0.03-0.108,0.091-0.162c0.061-0.054,0.104-0.081,0.132-0.081l0.324-0.284
			l-0.203,0.466c0.148,0,0.195,0.021,0.142,0.061c-0.027,0.041-0.03,0.071-0.01,0.091c0.021,0.021,0.044,0.038,0.071,0.051
			c0.026,0,0.054,0.007,0.081,0.02c0.013,0.014,0.026,0.021,0.04,0.021l-0.061-0.162c0.013-0.013,0.04-0.007,0.081,0.021
			c0.04,0.027,0.081,0.047,0.121,0.061c0.041,0.027,0.084,0.041,0.132,0.041c0.047,0,0.091-0.034,0.132-0.101
			c0.054-0.095-0.048-0.189-0.304-0.284l-0.102-0.101l0.243-0.122c0.202,0.067,0.311,0.067,0.324,0c0-0.013-0.014-0.027-0.041-0.041
			c-0.027-0.013-0.054-0.021-0.081-0.021c-0.014-0.013-0.023-0.03-0.03-0.05c-0.007-0.021,0.017-0.064,0.071-0.132
			c0.04-0.041,0.07-0.054,0.091-0.041c0.021,0.014,0.044,0.034,0.071,0.061c0.013,0.027,0.03,0.061,0.05,0.101
			c0.021,0.041,0.044,0.061,0.071,0.061c0.014,0,0.023-0.02,0.03-0.061s0.01-0.088,0.01-0.142c-0.014-0.041-0.02-0.081-0.02-0.122
			s0.006-0.067,0.02-0.081l-0.182-0.061l0.182-0.243l0.365,0.041c-0.041-0.041,0-0.088,0.121-0.142
			c0.054-0.014,0.095-0.027,0.121-0.041c-0.013,0-0.026-0.007-0.04-0.021l-0.081-0.041l-0.264,0.021l-0.404-0.122l0.607-0.284
			l0.283-0.364c0.271,0.095,0.418,0.122,0.445,0.081c0-0.014,0.004-0.031,0.011-0.051c0.006-0.021,0.01-0.043,0.01-0.071
			c0.014-0.027,0.023-0.047,0.03-0.061c0.007-0.013,0.023-0.02,0.051-0.02c0.027,0.014,0.088,0.041,0.183,0.081l0.061-0.304
			c-0.068-0.013-0.111-0.027-0.132-0.041c-0.021-0.013-0.037-0.027-0.051-0.041c-0.014-0.013-0.021-0.027-0.021-0.041
			c0-0.013,0-0.034,0-0.061c-0.026-0.014-0.054-0.088-0.08-0.223l0.04-0.182l0.121-0.162h0.122l0.04-0.263
			c-0.014-0.094-0.033-0.162-0.061-0.203c-0.027,0,0.014-0.067,0.121-0.202l0.224,0.101l0.142,0.182l0.04,0.304l0.122,0.041
			c0.081,0.014,0.142,0,0.182-0.041c0-0.013,0.054,0.041,0.162,0.162l0.061-0.182c0.095,0.068,0.142,0.108,0.142,0.122l0.102,0.223
			c0.027,0.054,0.047,0.088,0.061,0.101l0.203-0.02l0.182,0.101c0,0.095,0.095,0.169,0.284,0.223l0.081,0.324l-0.224,0.263
			c-0.135,0.337-0.27,0.534-0.404,0.587c-0.122,0.081-0.271,0.148-0.445,0.202l-0.183,0.425c-0.135,0.054-0.229,0.142-0.283,0.263
			l-0.142,0.304l-0.224,0.304L252.593,233.759z M247.854,241.636l-0.426,0.243l-0.283,0.021l0.243-0.263l0.102-0.284
			c0,0.014,0.033,0.027,0.101,0.041c0.067,0.027,0.142,0.047,0.223,0.061c0.095,0.014,0.216,0.034,0.365,0.061L247.854,241.636z
			 M247.368,237.202c0.122,0.094,0.216,0.047,0.284-0.142l0.161-0.142v-0.304l-0.161-0.142l-0.224,0.385l-0.263,0.041
			C247.166,237.046,247.233,237.147,247.368,237.202z M248.887,234.792l-0.162,0.324l-0.404,0.405l-0.364-0.121l0.161-0.344
			l0.385-0.223L248.887,234.792z M250.75,232.584c-0.162,0.189-0.25,0.277-0.264,0.263c-0.04-0.013-0.148,0.054-0.323,0.203
			l-0.041-0.385l0.466-0.182L250.75,232.584z M252.106,231.228l-0.344,0.121c-0.148,0-0.229-0.013-0.243-0.04
			c-0.04-0.027-0.054-0.148-0.04-0.365l0.202-0.122l0.202,0.021L252.106,231.228z M252.431,231.896l-0.445-0.142l-0.122,0.344
			l0.365,0.162L252.431,231.896z M252.795,230.985c0.027,0.041,0.169-0.047,0.426-0.263l-0.081-0.182
			c-0.257-0.054-0.405-0.067-0.445-0.041c-0.041,0.014-0.081,0.108-0.122,0.283C252.707,230.917,252.781,230.985,252.795,230.985z
			 M258.708,241.98l-0.385-0.243l-0.142,0.243l-0.425,0.061l0.161,0.304l0.324,0.021L258.708,241.98z"/>
		<path fill="#FFFFFF" d="M267.719,231.208c0.014,0.014,0.018,0.027,0.011,0.041c-0.007,0.014-0.018,0.034-0.03,0.061
			c-0.014,0.013-0.03,0.037-0.051,0.071s-0.044,0.071-0.071,0.111c-0.054,0.081-0.021,0.081,0.102,0
			c-0.014,0.054-0.021,0.122-0.021,0.202v0.122l0.324-0.142l0.304,0.203l0.061-0.284c-0.176-0.122-0.25-0.195-0.223-0.223h0.183
			c0.013,0,0.114,0.034,0.304,0.101l0.344-0.202l0.223-0.041l0.122-0.243l0.324,0.061l-0.122,0.162l-0.142,0.021l0.04,0.101
			c0.014,0.081,0,0.122-0.04,0.122l0.304-0.021l0.304-0.304l0.345,0.021l0.364-0.324l0.061,0.263l0.486-0.263
			c0.054,0.081,0.081,0.142,0.081,0.182c0,0.041-0.075,0.061-0.224,0.061c-0.013,0.175,0.007,0.263,0.062,0.263
			c0.04,0,0.162-0.034,0.364-0.101l-0.041-0.162l0.243,0.061l-0.081-0.324l0.243,0.061l-0.061,0.385h0.264l0.061-0.122l0.121-0.061
			l0.122,0.223l0.242,0.223l0.264,0.081l0.183-0.122l0.283-0.142h0.243l-0.122-0.162l0.142-0.142h0.143l0.08,0.243l0.081-0.183
			l0.264-0.202l0.183,0.02c0.229,0.027,0.385,0.047,0.466,0.061c0.054,0.04,0.147-0.021,0.283-0.183
			c0.026,0.149,0.033,0.271,0.021,0.365c-0.068,0.081,0,0.067,0.202-0.041l0.202-0.081l0.142,0.061
			c0.067-0.121,0.102-0.148,0.102-0.081c-0.014,0.081,0.021,0.108,0.102,0.081l-0.102,0.162l0.223-0.02l0.081,0.223l-0.162,0.101
			l0.264,0.102l-0.122,0.142l0.223,0.101l-0.142,0.061c-0.121,0.041-0.175,0.101-0.162,0.182c0,0.095-0.061,0.122-0.182,0.081
			l-0.304,0.081l-0.102-0.324l-0.324-0.061h-0.202l0.162,0.121c0.026,0.041,0.063,0.075,0.111,0.102
			c0.047,0.027,0.071,0.067,0.071,0.122c0,0.081-0.048,0.128-0.143,0.142l-0.323-0.061c-0.203,0.013-0.385,0.02-0.547,0.02
			c-0.081,0.014-0.132,0.02-0.152,0.02s-0.037,0-0.051,0l-0.466,0.041c-0.161-0.094-0.263-0.162-0.304-0.202
			c-0.067-0.014-0.169-0.021-0.304-0.021l-0.404,0.102l-0.466-0.061c-0.229,0.054-0.453,0.088-0.669,0.102
			c-0.04,0-0.07,0.003-0.091,0.01c-0.021,0.007-0.037,0.01-0.051,0.01h-0.061l-0.162-0.101l-0.081-0.122h-0.344
			c-0.136,0.108-0.236,0.162-0.304,0.162c-0.041,0-0.088-0.027-0.142-0.081l-0.607-0.102l-0.264,0.203
			c-0.081,0.014-0.264,0.014-0.547,0l0.183,1.053l-0.061,0.931c0.013,0.162,0.026,0.291,0.04,0.385c0,0.108,0.007,0.209,0.021,0.304
			c0.013,0.095,0.021,0.162,0.021,0.203s-0.018,0.088-0.051,0.142c-0.034,0.054-0.071,0.102-0.111,0.142
			c-0.041,0.054-0.078,0.101-0.111,0.142c-0.034,0.041-0.051,0.074-0.051,0.101c0.013,0.027,0.03,0.054,0.051,0.081
			c0.02,0.027,0.036,0.047,0.05,0.061l0.102,0.102v0.445l-0.142,0.324l0.142,0.425l-0.021,0.506l1.054,0.102l0.647-0.203
			l0.507,0.243h0.587l0.486-0.102c0.351,0.081,0.587,0.115,0.708,0.102l0.304-0.122h0.486l0.445-0.122l0.688,0.081l0.223-0.122
			l0.607,0.061c0.108,0.108,0.284,0.088,0.526-0.061c0.243-0.135,0.371-0.114,0.385,0.061l0.081,0.162l-0.202,0.162l0.142,0.182
			l0.021,0.486l-0.385,0.101l-0.486-0.122c-0.202-0.013-0.351,0-0.445,0.041c-0.108,0.027-0.236,0.041-0.385,0.041l-0.607-0.061
			l-1.053,0.121l-0.162-0.101H272.6c-0.041,0.014-0.075,0.021-0.102,0.021l0.061,0.223l-0.121,0.223
			c0.04,0.243,0.081,0.378,0.121,0.405c0.041,0.041,0.033,0.162-0.021,0.365l0.021,0.223l-0.021,0.243l-0.121,0.101
			c0,0.081,0.021,0.142,0.061,0.182c0.041,0.041,0.102,0.088,0.183,0.142c-0.041,0.067-0.061,0.162-0.061,0.283l-0.062,0.445
			l0.547-0.04l0.304,0.101l0.466,0.081c0.419,0.027,0.661,0.02,0.729-0.021l1.194-0.101c0.054-0.013,0.114-0.01,0.183,0.01
			c0.067,0.02,0.135,0.044,0.202,0.071c0.054,0.027,0.104,0.054,0.152,0.081c0.047,0.027,0.084,0.034,0.111,0.02l1.032-0.182h0.283
			l0.203,0.142c0.148-0.013,0.276-0.033,0.385-0.061l0.344,0.101l0.203-0.182l0.304,0.02l0.101-0.142h0.162l0.122,0.081
			c0,0.041,0.02,0.074,0.061,0.101h0.081l0.182-0.121l0.143-0.041l-0.021,0.142l0.081,0.02l-0.122,0.223l0.062,0.04l-0.041,0.142
			v0.182l-0.162-0.081l-0.121,0.162l-0.203-0.041c0.014,0.108,0.034,0.162,0.062,0.162v0.081l-0.183-0.021l0.102,0.122l0.182,0.061
			l-0.081,0.203h-0.242l-0.041-0.122c-0.081,0.041-0.121,0.041-0.121,0l-0.081-0.122l-0.122,0.021l-0.142,0.061
			c-0.04-0.041-0.067-0.081-0.081-0.122c-0.014-0.027-0.067,0.014-0.162,0.122c-0.107-0.054-0.169-0.074-0.182-0.061
			c-0.027,0.041-0.055,0.064-0.081,0.071c-0.027,0.007-0.034,0.003-0.021-0.01l-0.162,0.041l-0.061-0.101l-0.223,0.101l-0.122,0.183
			l-0.385-0.183l-1.012,0.162c-0.081,0-0.23-0.054-0.445-0.162l-0.426,0.081l-0.587-0.142c-0.311,0.027-0.547,0.101-0.709,0.223
			c-0.081,0.068-0.146,0.095-0.192,0.081c-0.048-0.013-0.084-0.041-0.111-0.081c-0.041-0.027-0.064-0.047-0.071-0.061
			c-0.007-0.014-0.003,0,0.011,0.041c-0.108-0.027-0.183-0.074-0.223-0.142c-0.014-0.013-0.051-0.033-0.111-0.061
			c-0.062-0.027-0.092-0.007-0.092,0.061l-0.445,0.102l-0.182,0.041l-0.162,0.223l-0.223-0.182l-0.324,0.061
			c0-0.041-0.068-0.101-0.203-0.182l-0.223,0.101l-0.202,0.162l-0.264,0.101c-0.04,0-0.142-0.041-0.304-0.122l-0.142-0.202
			l-0.202,0.263l-0.264-0.102l-0.263,0.021h-0.526l-0.688,0.122h-0.405c-0.054,0-0.183-0.054-0.385-0.162l-0.345,0.02
			c-0.081,0-0.351,0.048-0.81,0.142c-0.202-0.081-0.385-0.115-0.547-0.102h-0.587l-0.729,0.081l-0.931-0.081l-0.143,0.122
			l-0.323-0.041c-0.081-0.067-0.136-0.128-0.162-0.182c-0.014-0.027-0.021-0.051-0.021-0.071c0-0.021,0-0.044,0-0.071
			s0.003-0.051,0.01-0.071c0.007-0.021,0.018-0.051,0.03-0.091c-0.013-0.027-0.023-0.057-0.03-0.091
			c-0.007-0.033-0.01-0.064-0.01-0.091s0-0.058,0-0.091s0.014-0.071,0.04-0.111l-0.08-0.122l0.485-0.061
			c0.162,0.014,0.304,0.02,0.426,0.02l0.647-0.122l0.364-0.142l0.345,0.041l0.83,0.223l1.296-0.324l0.851,0.202l0.364-0.142
			l0.77-0.101l0.729-0.021c-0.014-0.243-0.027-0.398-0.041-0.466v-0.385l0.183-0.243l-0.041-0.365l-0.101-0.425l0.061-0.263
			l-0.122-0.182l0.102-0.445v-0.203l0.021-0.02h-0.021l-0.445,0.162l-1.053,0.021l-0.486-0.203l-0.79,0.223l-0.404-0.02
			l-0.669-0.284l-0.121-0.729c-0.162-0.027-0.243-0.081-0.243-0.162c0-0.027,0.003-0.063,0.011-0.111
			c0.006-0.047,0.022-0.098,0.05-0.152c0.014-0.054,0.027-0.108,0.041-0.162c0.013-0.054,0.021-0.102,0.021-0.142
			c-0.014-0.081,0.026-0.27,0.121-0.567c-0.014-0.284-0.021-0.466-0.021-0.547s-0.027-0.236-0.081-0.465l0.142-0.324l-0.04-0.668
			l0.142-0.223v-0.344l-0.102-0.223l-0.02-0.324l0.02-0.162l-0.02-0.203l-0.081-0.081l0.061-0.142v-0.243l-0.081-0.182l0.202-0.142
			v-0.122c-0.026-0.135-0.047-0.223-0.061-0.263c-0.027-0.013,0-0.067,0.081-0.162l-0.102-0.061
			c0.067-0.027,0.129-0.047,0.183-0.061c0.027,0,0.014-0.027-0.04-0.081l0.182-0.061l-0.202-0.041l-0.041-0.142l0.304-0.061
			l-0.182-0.122l0.162-0.02c0.107-0.094,0.168-0.128,0.182-0.101c0,0.041,0.067,0.108,0.203,0.202l0.142-0.162l0.182,0.081
			L267.719,231.208z M267.092,237.121l0.223-0.344l-0.507-0.263l-0.223,0.385L267.092,237.121z M267.152,236.148l0.061-0.263
			l-0.445-0.122c0.135,0.243,0.142,0.405,0.021,0.486L267.152,236.148z M268.124,232.726l-0.04-0.405l-0.365,0.445l0.203,0.264
			L268.124,232.726z M268.509,231.248c-0.04,0.027-0.115,0.007-0.223-0.061l-0.345,0.122c0.014-0.256,0.041-0.385,0.081-0.385
			c0.041,0,0.203,0.067,0.486,0.202V231.248z M269.299,242h-0.243l-0.121,0.122l0.364,0.344l0.385-0.182l-0.223-0.324L269.299,242z
			 M270.21,231.491l-0.223,0.202l0.202,0.081l0.526-0.061l-0.142-0.365L270.21,231.491z M272.053,239.956
			c-0.014,0.041-0.014,0.067,0,0.081c0.013,0.013,0.033,0.02,0.061,0.02c0.014,0,0.033-0.003,0.061-0.01
			c0.027-0.006,0.054-0.01,0.081-0.01l0.021-0.284l-0.223-0.061C272.065,239.8,272.065,239.888,272.053,239.956z M272.681,242.507
			l-0.385-0.021l-0.062,0.223c0.108,0.014,0.196,0,0.264-0.041s0.114-0.074,0.142-0.102
			C272.667,242.541,272.681,242.521,272.681,242.507z M272.417,230.944l0.364,0.101l0.264-0.283l0.364,0.203l-0.142,0.324
			l-0.445,0.122v-0.182l-0.324-0.021L272.417,230.944z M273.247,231.552c-0.054,0.041-0.135,0.105-0.243,0.192
			c-0.107,0.088-0.155,0.132-0.142,0.132l0.345-0.021C273.342,231.626,273.355,231.525,273.247,231.552z M275.373,231.592
			l-0.161-0.283l-0.264-0.041l-0.547,0.142l0.607,0.283L275.373,231.592z M277.966,242.122l-0.041,0.081l0.021,0.162l0.283-0.081
			l0.122,0.162l0.121-0.203l-0.102-0.182l-0.182-0.162l-0.021,0.162l-0.223-0.162l-0.162,0.142L277.966,242.122z M278.755,242.082
			l-0.081,0.142l0.142,0.081l0.304,0.041l0.062-0.243L278.938,242L278.755,242.082z M279.565,241.656
			c-0.014,0-0.095-0.034-0.243-0.101l-0.283,0.243c0.175,0.068,0.27,0.108,0.283,0.122c0,0.027,0.101-0.02,0.304-0.142
			L279.565,241.656z M279.707,242.304l0.182-0.122l0.081,0.122l0.041,0.122c-0.055,0.041-0.088,0.061-0.102,0.061
			s-0.034,0.014-0.061,0.041l-0.041,0.041L279.707,242.304z"/>
	</g>
</g>
</svg>
